<svg xmlns="http://www.w3.org/2000/svg" xmlns:xlink="http://www.w3.org/1999/xlink" id="Layer_1" x="0" y="0" version="1.1" viewBox="0 0 512 512" xml:space="preserve" style="enable-background:new 0 0 512 512"><style type="text/css">.st0{clip-path:url(#SVGID_2_)}.st1{clip-path:url(#SVGID_4_)}</style><g><defs><rect id="SVGID_1_" width="512" height="512"/></defs><clipPath id="SVGID_2_"><use xlink:href="#SVGID_1_" style="overflow:visible"/></clipPath><g class="st0"><defs><rect id="SVGID_3_" width="989.86" height="826" x="-249" y="-218"/></defs><clipPath id="SVGID_4_"><use xlink:href="#SVGID_3_" style="overflow:visible"/></clipPath><g class="st1"><g><path d="M295.6,399.79c14.25-6.03,15.57-16.23,8.61-28.43c-6.62-11.6-13.02-23.21-18.4-35.52 c-5.82-13.31-50.21-35.46-64.77-33.61c-20.86,2.65-41.61,5.6-53.8,24.5c-6.13-2.45-7.19-6.4-5.96-9.18 c8.01-18.06,10.31-38.56,23.41-54.44c10.65-12.9,26.12-13.05,40.65-16.15c11.61-2.47,26.16,2.29,34.49-7.2 c12.15-13.85,19.37-31.44,21.83-49.82c1.32-9.83,5.22-15.88,12.67-21.78c20.27-16.06,29.7-30.25,44.45-63.26 c6.92,1.53,2.01,10.95,9.42,12.98c17.76-20.47,26.64-46.06,37.12-72.48c7.56,10.61,2.29,21.83,6.05,33.39 C405.85,63.36,412.8,44.77,423.98,27c6.76,10.84,0.88,20.57,4.28,31.25c20.07-13.65,33.77-32.7,50.96-54.06 c-0.57,24.61-8.01,43.16-11.84,62.9c6,3.12,9.7-4.36,15.93-3.15c-6.08,25.12-19.16,45.8-33.19,66.83 c6.13-2.89,12.26-5.78,20.76-9.78c-6.43,23.81-20.89,38.52-41.63,54.27c8.37-1.52,12.14-2.21,17.82-3.24 c-4.96,20.27-20.69,30.03-35.75,42.15c8.55,2.96,13.99-4.97,22.01-2.95c-13.94,20.91-34.29,31-57.78,38.84 c6.17,7.59,14.34,1.78,21.17,5.55c-9.94,12.27-25.84,13.41-39.62,21.27c54.05,34.89,97.39,78.4,133.35,129.35 c-37.37-22.1-78.28-34.27-119.91-46.72c1.55,2.44,2.85,4.5,4.62,7.29c-14.09,4.85-25.71-4.46-40.37-6.74 c17.02,33.62-17.68,39.11-28.98,56.48c-0.64,9.95,10.22,9.99,13.87,18.22c-15.85-2.89-25.34,10.84-39.22,10.49 c1.36-11.84,7.18-21.43,16.41-29.4c8.53-7.37,19.31-12.92,23.58-26.3c-8.88,5.08-14.67,13.92-25.22,9.74L295.6,399.79z"/><path d="M390.01,424.26c-50.87,75.23-160.55,99.55-244.9,55.36C57.6,433.76,18.25,328.11,54.02,235 c33.36-86.83,133.16-141.9,218.12-119.78c-90.82,7.91-152.97,52.24-172.56,142.57c-16.54,76.28,11.32,139.64,76.57,181.59 C249.47,486.51,321.83,475.66,390.01,424.26z"/><path d="M252.33,238.45c5.15-16.7-5.21-40.44,23.21-48.89C269.88,208.34,266.71,225.94,252.33,238.45z"/><path d="M295.22,399.28c-8.12,16.33-24.93,24.7-35.07,39.17c-0.25-24.24,19.5-29.65,35.49-38.62 C295.6,399.79,295.22,399.28,295.22,399.28z"/></g></g></g></g></svg>